<svg xmlns="http://www.w3.org/2000/svg" version="1.1" xmlns:xlink="http://www.w3.org/1999/xlink" xmlns:svgjs="http://svgjs.dev/svgjs" width="1500" height="238" viewBox="0 0 1500 238"><g transform="matrix(1,0,0,1,-0.9090909090909918,-1.1560396344750927)"><svg viewBox="0 0 396 63" data-background-color="#000000" preserveAspectRatio="xMidYMid meet" height="238" width="1500" xmlns="http://www.w3.org/2000/svg" xmlns:xlink="http://www.w3.org/1999/xlink"><g id="tight-bounds" transform="matrix(1,0,0,1,0.2400000000000091,0.30601049147870185)"><svg viewBox="0 0 395.52 62.38797901704259" height="62.38797901704259" width="395.52"><g><svg viewBox="0 0 511.6738404397282 80.70969058688148" height="62.38797901704259" width="395.52"><g></g><g transform="matrix(1,0,0,1,116.15384043972823,11.154523084004605)"><svg viewBox="0 0 395.52 58.40064441887227" height="58.40064441887227" width="395.52"><g id="textblocktransform"><svg viewBox="0 0 395.52 58.40064441887227" height="58.40064441887227" width="395.52" id="textblock"><g><svg viewBox="0 0 395.52 58.40064441887227" height="58.40064441887227" width="395.52"><g transform="matrix(1,0,0,1,0,0)"><svg width="395.52" viewBox="3.3 -38.38 339.42 50.12" height="58.40064441887227" data-palette-color="url(#7eb6f220-f226-4f76-a5e8-c26906646920)"><g class="wordmark-text-0" data-fill-palette-color="primary" id="text-0"></g></svg></g></svg></g></svg></g></svg></g><g><svg viewBox="0 0 83.31322899290991 80.70969058688148" height="80.70969058688148" width="83.31322899290991"><g><svg xmlns="http://www.w3.org/2000/svg" xmlns:xlink="http://www.w3.org/1999/xlink" version="1.1" x="0" y="0" viewBox="0 1 64 62" enable-background="new 0 0 64 64" xml:space="preserve" height="80.70969058688148" width="83.31322899290991" class="icon-icon-0" data-fill-palette-color="accent" id="icon-0"></svg></g></svg></g></svg></g><defs></defs><mask id="e944fb95-4446-4866-8dad-af5e14d2a68b"><g id="SvgjsG4416"><svg viewBox="0 0 395.52 62.38797901704259" height="62.38797901704259" width="395.52"><g><svg viewBox="0 0 511.6738404397282 80.70969058688148" height="62.38797901704259" width="395.52"><g><rect width="5.266630383158942" height="58.69264764096663" x="97.1002195247396" y="11.008521472957426" fill="white" opacity="1" stroke-width="0" stroke="transparent" fill-opacity="1" class="rect-yte-0" rx="1%" id="SvgjsRect4415" data-palette-color="url(#7eb6f220-f226-4f76-a5e8-c26906646920)"></rect></g><g transform="matrix(1,0,0,1,116.15384043972823,11.154523084004605)"><svg viewBox="0 0 395.52 58.40064441887227" height="58.40064441887227" width="395.52"><g id="SvgjsG4414"><svg viewBox="0 0 395.52 58.40064441887227" height="58.40064441887227" width="395.52" id="SvgjsSvg4413"><g><svg viewBox="0 0 395.52 58.40064441887227" height="58.40064441887227" width="395.52"><g transform="matrix(1,0,0,1,0,0)"><svg width="395.52" viewBox="3.3 -38.38 339.42 50.12" height="58.40064441887227" data-palette-color="url(#7eb6f220-f226-4f76-a5e8-c26906646920)"><g class="wordmark-text-0" data-fill-palette-color="primary" id="SvgjsG4412"><path d="M25.66-22.44L25.66-22.44Q26.56-23.54 28.45-24.57 30.35-25.61 33.79-25.61L33.79-25.61Q38.67-25.61 40.84-23.1 43.02-20.58 43.02-15.55L43.02-15.55 43.02-1.29Q43.02-0.56 42.71-0.28 42.41 0 41.67 0L41.67 0 36.65 0Q35.91 0 35.61-0.28 35.3-0.56 35.3-1.29L35.3-1.29 35.3-14.28Q35.3-17.02 34.3-18.2 33.3-19.38 31.3-19.38L31.3-19.38Q29.52-19.38 28.48-18.59 27.44-17.8 27-16.46L27-16.46 27-1.29Q27-0.56 26.7-0.28 26.39 0 25.66 0L25.66 0 20.63 0Q19.9 0 19.59-0.28 19.29-0.56 19.29-1.29L19.29-1.29 19.29-14.28Q19.29-16.94 18.19-18.16 17.09-19.38 15.31-19.38L15.31-19.38Q13.62-19.38 12.6-18.55 11.57-17.72 11.01-16.46L11.01-16.46 11.01-1.29Q11.01-0.56 10.71-0.28 10.4 0 9.67 0L9.67 0 4.64 0Q3.91 0 3.6-0.28 3.3-0.56 3.3-1.29L3.3-1.29 3.3-21.75Q3.3-22.34 3.54-22.66L3.54-22.66Q4.05-23.34 4.77-24.05 5.49-24.76 6.54-25.56L6.54-25.56Q6.86-25.81 7.15-25.81L7.15-25.81Q7.42-25.81 7.76-25.56L7.76-25.56Q8.79-24.76 9.52-24.02 10.25-23.29 10.82-22.51L10.82-22.51 10.94-22.51Q11.77-23.56 13.53-24.58 15.28-25.61 18.55-25.61L18.55-25.61Q21.68-25.61 23.19-24.67 24.71-23.73 25.66-22.44ZM56.08 0.61L56.08 0.61Q52.49 0.61 50.38-1.4 48.26-3.42 48.26-6.96L48.26-6.96Q48.26-8.79 48.94-10.36 49.61-11.94 51.28-13.15 52.95-14.36 55.97-15.09 58.98-15.82 63.67-15.94L63.67-15.94Q63.67-18.16 62.56-19.14 61.45-20.12 59.23-20.12L59.23-20.12Q57.22-20.12 55.95-19.43 54.69-18.75 54.37-18.51L54.37-18.51Q54.03-18.21 53.54-18.29L53.54-18.29Q52.88-18.38 52.13-18.63 51.39-18.87 50.53-19.19L50.53-19.19Q50.41-19.24 50.27-19.35 50.12-19.46 50.1-19.68L50.1-19.68Q50.1-19.8 50.12-19.98 50.14-20.17 50.24-20.65L50.24-20.65Q50.34-21.14 50.53-21.86 50.73-22.58 50.9-22.97L50.9-22.97Q51.12-23.39 51.63-23.75L51.63-23.75Q52.05-24.1 54.15-24.85 56.25-25.61 60.23-25.61L60.23-25.61Q71.19-25.61 71.19-14.94L71.19-14.94 71.19-1.12Q71.19-0.66 70.93-0.33 70.68 0 70.07 0L70.07 0 66.4 0Q66.01 0 65.71-0.11 65.4-0.22 65.13-0.54L65.13-0.54 63.62-2.49 63.45-2.49Q62.33-0.85 60.43-0.12 58.54 0.61 56.08 0.61ZM58.76-5.05L58.76-5.05Q61.01-5.05 62.16-6.2 63.3-7.35 63.62-8.57L63.62-8.57 63.62-11.28Q60.23-11.28 58.53-10.75 56.83-10.23 56.27-9.39 55.71-8.54 55.71-7.57L55.71-7.57Q55.71-6.15 56.59-5.6 57.47-5.05 58.76-5.05ZM101.95-15.55L101.95-15.55 101.95-1.29Q101.95-0.56 101.64-0.28 101.34 0 100.61 0L100.61 0 95.58 0Q94.84 0 94.54-0.28 94.23-0.56 94.23-1.29L94.23-1.29 94.23-14.28Q94.23-16.94 93.11-18.16 91.99-19.38 90.06-19.38L90.06-19.38Q88.13-19.38 87.09-18.55 86.05-17.72 85.49-16.46L85.49-16.46 85.49-1.29Q85.49-0.56 85.19-0.28 84.88 0 84.15 0L84.15 0 79.12 0Q78.39 0 78.08-0.28 77.78-0.56 77.78-1.29L77.78-1.29 77.78-21.75Q77.78-22.34 78.02-22.66L78.02-22.66Q78.54-23.34 79.26-24.05 79.98-24.76 81.03-25.56L81.03-25.56Q81.34-25.81 81.64-25.81L81.64-25.81Q81.9-25.81 82.25-25.56L82.25-25.56Q83.27-24.76 84-24.02 84.74-23.29 85.3-22.51L85.3-22.51 85.42-22.51Q85.83-23.05 86.66-23.77 87.5-24.49 89-25.05 90.5-25.61 92.84-25.61L92.84-25.61Q95.14-25.61 97.21-24.68 99.29-23.75 100.62-21.56 101.95-19.36 101.95-15.55ZM132.71-22.66L132.71-22.66 132.71-2.86Q132.71 4.27 128.64 8.01 124.58 11.74 117.5 11.74L117.5 11.74Q114.57 11.74 112.86 11.32 111.15 10.89 110.27 10.5L110.27 10.5Q109.71 10.23 109.54 9.94L109.54 9.94Q109.29 9.55 108.99 8.79 108.68 8.03 108.42 7.13L108.42 7.13Q108.34 6.79 108.39 6.62L108.39 6.62Q108.49 6.37 108.76 6.1L108.76 6.1Q109.2 5.66 110.01 5.08 110.83 4.49 111.27 4.32L111.27 4.32Q111.74 4.15 112.13 4.37L112.13 4.37Q112.76 4.71 113.95 5.14 115.13 5.57 117.28 5.57L117.28 5.57Q120.7 5.57 122.84 3.81 124.99 2.05 124.99-1.61L124.99-1.61 124.99-2.49 124.89-2.49Q124.36-1.81 123.5-1.1 122.65-0.39 121.29 0.1 119.94 0.59 117.81 0.59L117.81 0.59Q114.13 0.59 111.77-1.01 109.42-2.61 108.31-5.42 107.19-8.23 107.19-11.82L107.19-11.82Q107.19-15.75 108.49-18.87 109.78-22 112.83-23.82 115.89-25.63 121.18-25.63L121.18-25.63Q124.36-25.63 126.52-25.17 128.68-24.71 130.14-24.02 131.61-23.34 132.71-22.66ZM120.92-19.73L120.92-19.73Q118.08-19.73 116.59-17.82 115.1-15.92 115.1-11.91L115.1-11.91Q115.1-5.64 120.28-5.64L120.28-5.64Q122.31-5.64 123.38-6.47 124.46-7.3 124.99-8.57L124.99-8.57 124.99-18.65Q124.46-19.04 123.48-19.38 122.5-19.73 120.92-19.73ZM145.77 0.61L145.77 0.61Q142.18 0.61 140.07-1.4 137.95-3.42 137.95-6.96L137.95-6.96Q137.95-8.79 138.63-10.36 139.3-11.94 140.97-13.15 142.64-14.36 145.66-15.09 148.67-15.82 153.36-15.94L153.36-15.94Q153.36-18.16 152.25-19.14 151.14-20.12 148.92-20.12L148.92-20.12Q146.91-20.12 145.64-19.43 144.37-18.75 144.06-18.51L144.06-18.51Q143.72-18.21 143.23-18.29L143.23-18.29Q142.57-18.38 141.82-18.63 141.08-18.87 140.22-19.19L140.22-19.19Q140.1-19.24 139.96-19.35 139.81-19.46 139.78-19.68L139.78-19.68Q139.78-19.8 139.81-19.98 139.83-20.17 139.93-20.65L139.93-20.65Q140.03-21.14 140.22-21.86 140.42-22.58 140.59-22.97L140.59-22.97Q140.81-23.39 141.32-23.75L141.32-23.75Q141.74-24.1 143.84-24.85 145.94-25.61 149.92-25.61L149.92-25.61Q160.88-25.61 160.88-14.94L160.88-14.94 160.88-1.12Q160.88-0.66 160.62-0.33 160.37 0 159.76 0L159.76 0 156.09 0Q155.7 0 155.4-0.11 155.09-0.22 154.82-0.54L154.82-0.54 153.31-2.49 153.14-2.49Q152.02-0.85 150.12-0.12 148.23 0.61 145.77 0.61ZM148.45-5.05L148.45-5.05Q150.7-5.05 151.85-6.2 152.99-7.35 153.31-8.57L153.31-8.57 153.31-11.28Q149.92-11.28 148.22-10.75 146.52-10.23 145.96-9.39 145.4-8.54 145.4-7.57L145.4-7.57Q145.4-6.15 146.28-5.6 147.16-5.05 148.45-5.05ZM186.93-33.08L186.93-33.08Q188.27-31.2 189.67-28.23 191.08-25.27 192.39-21.73 193.71-18.19 194.78-14.49 195.84-10.79 196.52-7.37 197.2-3.96 197.3-1.29L197.3-1.29Q197.33 0 196.13 0L196.13 0 190.22 0Q189.07 0 189.03-1.15L189.03-1.15Q188.93-3.88 188.15-7.79L188.15-7.79 174.82-7.79Q174.13-3.98 174.04-1.15L174.04-1.15Q173.99 0 172.79 0L172.79 0 167 0Q166.56 0 166.27-0.26 165.98-0.51 166-1.15L166-1.15Q166.13-3.86 166.8-7.31 167.47-10.77 168.54-14.48 169.62-18.19 170.93-21.74 172.25-25.29 173.67-28.25 175.09-31.2 176.43-33.08L176.43-33.08Q177.14-34.08 177.93-34.55 178.72-35.01 179.89-35.01L179.89-35.01 183.41-35.01Q184.61-35.01 185.41-34.55 186.22-34.08 186.93-33.08ZM181.55-27.29L181.41-27.29Q179.8-24.73 178.45-21.17 177.11-17.6 176.13-13.84L176.13-13.84 186.73-13.84Q185.71-17.6 184.36-21.17 183.02-24.73 181.55-27.29L181.55-27.29ZM210.14-22.17L210.14-20.36 210.24-20.36Q212.07-25.44 216.83-25.44L216.83-25.44Q217.44-25.44 217.83-25.38 218.22-25.32 218.37-25.27L218.37-25.27Q218.74-25.15 218.74-24.71L218.74-24.71 218.74-18.82Q218.74-18.07 217.86-18.41L217.86-18.41Q217.56-18.53 217.01-18.66 216.46-18.8 215.49-18.8L215.49-18.8Q212.97-18.8 211.56-16.96 210.14-15.11 210.14-11.94L210.14-11.94 210.14-1.29Q210.14-0.56 209.84-0.28 209.53 0 208.8 0L208.8 0 203.77 0Q203.04 0 202.73-0.28 202.43-0.56 202.43-1.29L202.43-1.29 202.43-21.75Q202.43-22.34 202.67-22.66L202.67-22.66Q203.18-23.34 203.9-24.05 204.62-24.76 205.67-25.56L205.67-25.56Q205.87-25.71 206.06-25.76 206.26-25.81 206.41-25.81L206.41-25.81Q206.75-25.81 207.09-25.56L207.09-25.56Q209.12-23.97 209.92-22.85L209.92-22.85Q210.14-22.56 210.14-22.17L210.14-22.17ZM234.82-25.61L234.82-25.61Q237.73-25.61 239.05-25.13 240.36-24.66 240.71-24.39L240.71-24.39Q241.24-24.05 241.54-23.51L241.54-23.51Q241.71-23.24 241.93-22.58 242.15-21.92 242.24-21.14L242.24-21.14Q242.37-20.53 242.27-20.28 242.17-20.02 241.66-19.65L241.66-19.65Q241.07-19.26 240.38-18.96 239.68-18.65 239.24-18.53L239.24-18.53Q238.87-18.43 238.68-18.48 238.48-18.53 238.14-18.77L238.14-18.77Q237.75-19.04 237.04-19.37 236.34-19.7 235.09-19.7L235.09-19.7Q233.5-19.7 232.07-18.92 230.65-18.14 229.76-16.58 228.86-15.01 228.86-12.67L228.86-12.67Q228.86-9.16 230.71-7.23 232.55-5.3 235.65-5.3L235.65-5.3Q237.24-5.3 238.29-5.63 239.34-5.96 239.95-6.3L239.95-6.3Q240.44-6.57 240.69-6.43 240.95-6.3 241.1-5.96L241.1-5.96 242.88-1.93Q243.15-1.29 242.59-1.03L242.59-1.03Q241.68-0.56 239.61 0.02 237.53 0.61 234.48 0.61L234.48 0.61Q228.35 0.61 224.69-2.65 221.03-5.91 221.03-12.4L221.03-12.4Q221.03-16.55 222.71-19.51 224.4-22.46 227.5-24.04 230.6-25.61 234.82-25.61ZM254.57-16.46L254.57-1.29Q254.57-0.56 254.26-0.28 253.96 0 253.23 0L253.23 0 248.2 0Q247.47 0 247.16-0.28 246.86-0.56 246.86-1.29L246.86-1.29 246.86-34.33Q246.86-34.91 247.1-35.23L247.1-35.23Q248.12-36.57 250.1-38.13L250.1-38.13Q250.44-38.38 250.71-38.38L250.71-38.38Q251.03-38.38 251.32-38.13L251.32-38.13Q252.37-37.33 253.09-36.62 253.81-35.91 254.33-35.23L254.33-35.23Q254.57-34.91 254.57-34.33L254.57-34.33 254.57-22.49 254.67-22.49Q255.2-23.19 256.06-23.91 256.91-24.63 258.34-25.12 259.77-25.61 261.99-25.61L261.99-25.61Q264.24-25.61 266.31-24.68 268.39-23.75 269.71-21.56 271.02-19.36 271.02-15.55L271.02-15.55 271.02-1.29Q271.02-0.56 270.72-0.28 270.41 0 269.68 0L269.68 0 264.65 0Q263.92 0 263.62-0.28 263.31-0.56 263.31-1.29L263.31-1.29 263.31-14.21Q263.31-16.92 262.19-18.15 261.06-19.38 259.14-19.38L259.14-19.38Q257.23-19.38 256.18-18.55 255.13-17.72 254.57-16.46L254.57-16.46ZM276.49-33.2L276.49-33.2Q276.49-33.52 276.69-33.76 276.88-34.01 277.2-34.4L277.2-34.4Q277.88-35.18 278.79-36.05 279.69-36.91 280.62-37.72L280.62-37.72Q281.2-38.18 281.5-38.18L281.5-38.18Q281.79-38.18 282.4-37.72L282.4-37.72Q284.38-36.01 285.77-34.4L285.77-34.4Q286.09-34.03 286.29-33.78 286.5-33.52 286.5-33.2L286.5-33.2Q286.5-32.89 286.29-32.64 286.09-32.4 285.74-31.98L285.74-31.98Q285.08-31.23 284.21-30.36 283.33-29.49 282.4-28.71L282.4-28.71Q282.06-28.42 281.86-28.33 281.67-28.25 281.5-28.25L281.5-28.25Q281.33-28.25 281.14-28.33 280.96-28.42 280.57-28.71L280.57-28.71Q279.59-29.49 278.74-30.36 277.88-31.23 277.2-32.03L277.2-32.03Q276.88-32.42 276.69-32.65 276.49-32.89 276.49-33.2ZM285.33-23.71L285.33-1.29Q285.33-0.56 285.02-0.28 284.72 0 283.99 0L283.99 0 278.96 0Q278.22 0 277.92-0.28 277.61-0.56 277.61-1.29L277.61-1.29 277.61-23.71Q277.61-24.44 277.92-24.72 278.22-25 278.96-25L278.96-25 283.99-25Q284.72-25 285.02-24.72 285.33-24.44 285.33-23.71L285.33-23.71ZM297.24-2.27L297.24-2.27Q295.9-4.39 294.59-7.17 293.29-9.94 292.22-12.78 291.16-15.63 290.53-17.98 289.89-20.34 289.89-21.61L289.89-21.61Q289.89-22.09 290.16-22.41L290.16-22.41Q291.28-23.8 293.36-25.32L293.36-25.32Q293.73-25.56 294.02-25.56L294.02-25.56Q294.34-25.56 294.68-25.32L294.68-25.32Q295.8-24.51 296.57-23.8 297.34-23.1 297.88-22.41L297.88-22.41Q298.14-22.09 298.14-21.51L298.14-21.51 298.14-21.63Q298.14-20.04 298.72-17.47 299.29-14.89 300.29-12.04 301.29-9.18 302.61-6.79L302.61-6.79 302.73-6.79Q303.83-8.59 304.69-10.69 305.54-12.79 306.13-14.89 306.71-16.99 307.02-18.75 307.32-20.51 307.32-21.61L307.32-21.61 307.32-21.51Q307.32-22.09 307.57-22.41L307.57-22.41Q308.13-23.1 308.89-23.8 309.64-24.51 310.72-25.32L310.72-25.32Q311.06-25.56 311.35-25.56L311.35-25.56Q311.69-25.56 311.99-25.32L311.99-25.32Q313.09-24.51 313.84-23.8 314.6-23.1 315.14-22.41L315.14-22.41Q315.38-22.09 315.38-21.56L315.38-21.56Q315.36-20.24 314.7-17.86 314.04-15.48 312.93-12.63 311.82-9.79 310.45-7.04 309.08-4.3 307.67-2.27L307.67-2.27Q306.81-1.03 306.13-0.51 305.44 0 303.76 0L303.76 0 301.17 0Q299.41 0 298.74-0.49 298.07-0.98 297.24-2.27ZM289.89-21.51L289.89-21.63 289.89-21.61Q289.89-21.56 289.89-21.51L289.89-21.51ZM315.38-21.61L315.38-21.61 315.38-21.51 315.38-21.56Q315.38-21.58 315.38-21.61ZM332.15 0.61L332.15 0.61Q328.02 0.61 324.97-0.72 321.92-2.05 320.24-4.86 318.55-7.67 318.55-12.11L318.55-12.11Q318.55-18.77 321.97-22.19 325.39-25.61 331.05-25.61L331.05-25.61Q334.74-25.61 337.29-24.29 339.84-22.97 341.17-20.65 342.5-18.33 342.5-15.36L342.5-15.36Q342.5-12.45 341.01-11.3 339.52-10.16 336.67-10.16L336.67-10.16 326.19-10.16Q326.39-7.64 328.04-6.32 329.68-5 332.52-5L332.52-5Q334.76-5 336.12-5.68 337.47-6.35 338.01-6.74L338.01-6.74Q338.47-7.08 339.06-7.06L339.06-7.06Q339.52-7.06 340.39-6.87 341.26-6.69 342.11-6.2L342.11-6.2Q342.72-5.88 342.72-5.32L342.72-5.32Q342.72-5 342.6-4.42L342.6-4.42Q342.53-4.08 342.36-3.43 342.18-2.78 341.92-2.22L341.92-2.22Q341.77-1.95 341.45-1.71L341.45-1.71Q340.96-1.37 339.88-0.81 338.79-0.24 336.91 0.18 335.03 0.61 332.15 0.61ZM326.14-15.16L326.14-15.16 334.1-15.16Q335.35-15.16 335.35-16.31L335.35-16.31Q335.35-18.04 334.26-19.23 333.18-20.41 331-20.41L331-20.41Q328.63-20.41 327.52-18.9 326.41-17.38 326.14-15.16Z" fill="white"></path></g></svg></g></svg></g></svg></g></svg></g><g><svg viewBox="0 0 83.31322899290991 80.70969058688148" height="80.70969058688148" width="83.31322899290991"><g><svg xmlns="http://www.w3.org/2000/svg" xmlns:xlink="http://www.w3.org/1999/xlink" version="1.1" x="0" y="0" viewBox="0 1 64 62" enable-background="new 0 0 64 64" xml:space="preserve" height="80.70969058688148" width="83.31322899290991" class="icon-icon-0" data-fill-palette-color="accent" id="SvgjsSvg4411"><g fill="black"><g fill="black"><g fill="black"><path d="M25 58H1A1 1 0 1 1 1 56H25A1 1 0 1 1 25 58" fill="black"></path></g><g fill="black"><path d="M25 62H1A1 1 0 1 1 1 60H25A1 1 0 1 1 25 62" fill="black"></path></g><g fill="black"><path d="M63 58H39A1 1 0 1 1 39 56H63A1 1 0 1 1 63 58" fill="black"></path></g><g fill="black"><path d="M63 62H39A1 1 0 1 1 39 60H63A1 1 0 1 1 63 62" fill="black"></path></g><g fill="black"><g fill="black"><path d="M25 63A1 1 0 0 1 24 62V56A1 1 0 1 1 26 56V62A1 1 0 0 1 25 63" fill="black"></path></g><g fill="black"><path d="M39 63A1 1 0 0 1 38 62V56A1 1 0 1 1 40 56V62A1 1 0 0 1 39 63" fill="black"></path></g><g fill="black"><path d="M39 63H25A1 1 0 1 1 25 61H39A1 1 0 1 1 39 63" fill="black"></path></g><g fill="black"><path d="M39 57H35A1 1 0 1 1 35 55H39A1 1 0 1 1 39 57" fill="black"></path></g><g fill="black"><path d="M29 57H25A1 1 0 1 1 25 55H29A1 1 0 1 1 29 57" fill="black"></path></g><g fill="black"><path d="M29 57A1 1 0 0 1 28 56V52A1 1 0 1 1 30 52V56A1 1 0 0 1 29 57" fill="black"></path></g><g fill="black"><path d="M35 57A1 1 0 0 1 34 56V52A1 1 0 1 1 36 52V56A1 1 0 0 1 35 57" fill="black"></path></g><g fill="black"><path d="M35 53H29A1 1 0 1 1 29 51H35A1 1 0 1 1 35 53" fill="black"></path></g><g fill="black"><path d="M30 53A1 1 0 0 1 29 52V46A1 1 0 1 1 31 46V52A1 1 0 0 1 30 53" fill="black"></path></g><g fill="black"><path d="M34 53A1 1 0 0 1 33 52V46A1 1 0 1 1 35 46V52A1 1 0 0 1 34 53" fill="black"></path></g></g><g fill="black"><path d="M57 47H7A1 1 0 0 1 6.006 46.11L2.006 10.11A1 1 0 0 1 3 9H61A1 1 0 0 1 61.994 10.11L57.994 46.11A1 1 0 0 1 57 47M7.896 45H56.105L59.883 11H4.117z" fill="black"></path></g><g fill="black"><path d="M7 11A1 1 0 0 1 6 10V2A1 1 0 1 1 8 2V10A1 1 0 0 1 7 11" fill="black"></path></g><g fill="black"><path d="M19 3H7A1 1 0 1 1 7 1H19A1 1 0 1 1 19 3" fill="black"></path></g><g fill="black"><path d="M22 6A1 1 0 0 1 21.293 5.707L18.293 2.707A0.999 0.999 0 1 1 19.707 1.293L22.707 4.293A0.999 0.999 0 0 1 22 6" fill="black"></path></g><g fill="black"><path d="M57 6H22A1 1 0 1 1 22 4H57A1 1 0 1 1 57 6" fill="black"></path></g><g fill="black"><path d="M57 11A1 1 0 0 1 56 10V5A1 1 0 1 1 58 5V10A1 1 0 0 1 57 11" fill="black"></path></g><g fill="black"><path d="M45 26H19A1 1 0 1 1 19 24H45A1 1 0 1 1 45 26" fill="black"></path></g><g fill="black"><path d="M45 30H19A1 1 0 1 1 19 28H45A1 1 0 1 1 45 30" fill="black"></path></g><g fill="black"><path d="M38 34H26A1 1 0 1 1 26 32H38A1 1 0 1 1 38 34" fill="black"></path></g></g></g></svg></g></svg></g></svg></g><defs><mask></mask></defs></svg><rect width="395.52" height="62.38797901704259" fill="black" stroke="none" visibility="hidden"></rect></g></mask><linearGradient x1="0" x2="1" y1="0.5" y2="0.5" id="7eb6f220-f226-4f76-a5e8-c26906646920"><stop stop-color="#f00b51" offset="0"></stop><stop stop-color="#730062" offset="1"></stop></linearGradient><rect width="395.52" height="62.38797901704259" fill="url(#7eb6f220-f226-4f76-a5e8-c26906646920)" mask="url(#e944fb95-4446-4866-8dad-af5e14d2a68b)" data-fill-palette-color="primary"></rect><mask id="b4fe627d-8f04-4a60-a21f-f40dab294106"><g id="SvgjsG4439"><svg viewBox="0 0 395.52 62.38797901704259" height="62.38797901704259" width="395.52"><g><svg viewBox="0 0 511.6738404397282 80.70969058688148" height="62.38797901704259" width="395.52"><g></g><g transform="matrix(1,0,0,1,116.15384043972823,11.154523084004605)"><svg viewBox="0 0 395.52 58.40064441887227" height="58.40064441887227" width="395.52"><g id="SvgjsG4438"><svg viewBox="0 0 395.52 58.40064441887227" height="58.40064441887227" width="395.52" id="SvgjsSvg4437"><g><svg viewBox="0 0 395.52 58.40064441887227" height="58.40064441887227" width="395.52"><g transform="matrix(1,0,0,1,0,0)"><svg width="395.52" viewBox="3.3 -38.38 339.42 50.12" height="58.40064441887227" data-palette-color="url(#7eb6f220-f226-4f76-a5e8-c26906646920)"><g class="wordmark-text-0" data-fill-palette-color="primary" id="SvgjsG4436"></g></svg></g></svg></g></svg></g></svg></g><g><svg viewBox="0 0 83.31322899290991 80.70969058688148" height="80.70969058688148" width="83.31322899290991"><g><svg xmlns="http://www.w3.org/2000/svg" xmlns:xlink="http://www.w3.org/1999/xlink" version="1.1" x="0" y="0" viewBox="0 1 64 62" enable-background="new 0 0 64 64" xml:space="preserve" height="80.70969058688148" width="83.31322899290991" class="icon-icon-0" data-fill-palette-color="accent" id="SvgjsSvg4435"><g fill="white"><g fill="white"><g fill="white"><path d="M25 58H1A1 1 0 1 1 1 56H25A1 1 0 1 1 25 58" fill="white"></path></g><g fill="white"><path d="M25 62H1A1 1 0 1 1 1 60H25A1 1 0 1 1 25 62" fill="white"></path></g><g fill="white"><path d="M63 58H39A1 1 0 1 1 39 56H63A1 1 0 1 1 63 58" fill="white"></path></g><g fill="white"><path d="M63 62H39A1 1 0 1 1 39 60H63A1 1 0 1 1 63 62" fill="white"></path></g><g fill="white"><g fill="white"><path d="M25 63A1 1 0 0 1 24 62V56A1 1 0 1 1 26 56V62A1 1 0 0 1 25 63" fill="white"></path></g><g fill="white"><path d="M39 63A1 1 0 0 1 38 62V56A1 1 0 1 1 40 56V62A1 1 0 0 1 39 63" fill="white"></path></g><g fill="white"><path d="M39 63H25A1 1 0 1 1 25 61H39A1 1 0 1 1 39 63" fill="white"></path></g><g fill="white"><path d="M39 57H35A1 1 0 1 1 35 55H39A1 1 0 1 1 39 57" fill="white"></path></g><g fill="white"><path d="M29 57H25A1 1 0 1 1 25 55H29A1 1 0 1 1 29 57" fill="white"></path></g><g fill="white"><path d="M29 57A1 1 0 0 1 28 56V52A1 1 0 1 1 30 52V56A1 1 0 0 1 29 57" fill="white"></path></g><g fill="white"><path d="M35 57A1 1 0 0 1 34 56V52A1 1 0 1 1 36 52V56A1 1 0 0 1 35 57" fill="white"></path></g><g fill="white"><path d="M35 53H29A1 1 0 1 1 29 51H35A1 1 0 1 1 35 53" fill="white"></path></g><g fill="white"><path d="M30 53A1 1 0 0 1 29 52V46A1 1 0 1 1 31 46V52A1 1 0 0 1 30 53" fill="white"></path></g><g fill="white"><path d="M34 53A1 1 0 0 1 33 52V46A1 1 0 1 1 35 46V52A1 1 0 0 1 34 53" fill="white"></path></g></g><g fill="white"><path d="M57 47H7A1 1 0 0 1 6.006 46.11L2.006 10.11A1 1 0 0 1 3 9H61A1 1 0 0 1 61.994 10.11L57.994 46.11A1 1 0 0 1 57 47M7.896 45H56.105L59.883 11H4.117z" fill="white"></path></g><g fill="white"><path d="M7 11A1 1 0 0 1 6 10V2A1 1 0 1 1 8 2V10A1 1 0 0 1 7 11" fill="white"></path></g><g fill="white"><path d="M19 3H7A1 1 0 1 1 7 1H19A1 1 0 1 1 19 3" fill="white"></path></g><g fill="white"><path d="M22 6A1 1 0 0 1 21.293 5.707L18.293 2.707A0.999 0.999 0 1 1 19.707 1.293L22.707 4.293A0.999 0.999 0 0 1 22 6" fill="white"></path></g><g fill="white"><path d="M57 6H22A1 1 0 1 1 22 4H57A1 1 0 1 1 57 6" fill="white"></path></g><g fill="white"><path d="M57 11A1 1 0 0 1 56 10V5A1 1 0 1 1 58 5V10A1 1 0 0 1 57 11" fill="white"></path></g><g fill="white"><path d="M45 26H19A1 1 0 1 1 19 24H45A1 1 0 1 1 45 26" fill="white"></path></g><g fill="white"><path d="M45 30H19A1 1 0 1 1 19 28H45A1 1 0 1 1 45 30" fill="white"></path></g><g fill="white"><path d="M38 34H26A1 1 0 1 1 26 32H38A1 1 0 1 1 38 34" fill="white"></path></g></g></g></svg></g></svg></g></svg></g><defs><mask></mask></defs><mask><g id="SvgjsG4434"><svg viewBox="0 0 395.52 62.38797901704259" height="62.38797901704259" width="395.52"><g><svg viewBox="0 0 511.6738404397282 80.70969058688148" height="62.38797901704259" width="395.52"><g><rect width="5.266630383158942" height="58.69264764096663" x="97.1002195247396" y="11.008521472957426" fill="black" opacity="1" stroke-width="0" stroke="transparent" fill-opacity="1" class="rect-yte-0" rx="1%" id="SvgjsRect4433" data-palette-color="url(#7eb6f220-f226-4f76-a5e8-c26906646920)"></rect></g><g transform="matrix(1,0,0,1,116.15384043972823,11.154523084004605)"><svg viewBox="0 0 395.52 58.40064441887227" height="58.40064441887227" width="395.52"><g id="SvgjsG4432"><svg viewBox="0 0 395.52 58.40064441887227" height="58.40064441887227" width="395.52" id="SvgjsSvg4431"><g><svg viewBox="0 0 395.52 58.40064441887227" height="58.40064441887227" width="395.52"><g transform="matrix(1,0,0,1,0,0)"><svg width="395.52" viewBox="3.3 -38.38 339.42 50.12" height="58.40064441887227" data-palette-color="url(#7eb6f220-f226-4f76-a5e8-c26906646920)"><g class="wordmark-text-0" data-fill-palette-color="primary" id="SvgjsG4430"><path d="M25.66-22.44L25.66-22.44Q26.56-23.54 28.45-24.57 30.35-25.61 33.79-25.61L33.79-25.61Q38.67-25.61 40.84-23.1 43.02-20.58 43.02-15.55L43.02-15.55 43.02-1.29Q43.02-0.56 42.71-0.28 42.41 0 41.67 0L41.67 0 36.65 0Q35.91 0 35.61-0.28 35.3-0.56 35.3-1.29L35.3-1.29 35.3-14.28Q35.3-17.02 34.3-18.2 33.3-19.38 31.3-19.38L31.3-19.38Q29.52-19.38 28.48-18.59 27.44-17.8 27-16.46L27-16.46 27-1.29Q27-0.56 26.7-0.28 26.39 0 25.66 0L25.66 0 20.63 0Q19.9 0 19.59-0.28 19.29-0.56 19.29-1.29L19.29-1.29 19.29-14.28Q19.29-16.94 18.19-18.16 17.09-19.38 15.31-19.38L15.31-19.38Q13.62-19.38 12.6-18.55 11.57-17.72 11.01-16.46L11.01-16.46 11.01-1.29Q11.01-0.56 10.71-0.28 10.4 0 9.67 0L9.67 0 4.64 0Q3.91 0 3.6-0.28 3.3-0.56 3.3-1.29L3.3-1.29 3.3-21.75Q3.3-22.34 3.54-22.66L3.54-22.66Q4.05-23.34 4.77-24.05 5.49-24.76 6.54-25.56L6.54-25.56Q6.86-25.81 7.15-25.81L7.15-25.81Q7.42-25.81 7.76-25.56L7.76-25.56Q8.79-24.76 9.52-24.02 10.25-23.29 10.82-22.51L10.82-22.51 10.94-22.51Q11.77-23.56 13.53-24.58 15.28-25.61 18.55-25.61L18.55-25.61Q21.68-25.61 23.19-24.67 24.71-23.73 25.66-22.44ZM56.08 0.61L56.08 0.61Q52.49 0.61 50.38-1.4 48.26-3.42 48.26-6.96L48.26-6.96Q48.26-8.79 48.94-10.36 49.61-11.94 51.28-13.15 52.95-14.36 55.97-15.09 58.98-15.82 63.67-15.94L63.67-15.94Q63.67-18.16 62.56-19.14 61.45-20.12 59.23-20.12L59.23-20.12Q57.22-20.12 55.95-19.43 54.69-18.75 54.37-18.51L54.37-18.51Q54.03-18.21 53.54-18.29L53.54-18.29Q52.88-18.38 52.13-18.63 51.39-18.87 50.53-19.19L50.53-19.19Q50.41-19.24 50.27-19.35 50.12-19.46 50.1-19.68L50.1-19.68Q50.1-19.8 50.12-19.98 50.14-20.17 50.24-20.65L50.24-20.65Q50.34-21.14 50.53-21.86 50.73-22.58 50.9-22.97L50.9-22.97Q51.12-23.39 51.63-23.75L51.63-23.75Q52.05-24.1 54.15-24.85 56.25-25.61 60.23-25.61L60.23-25.61Q71.19-25.61 71.19-14.94L71.19-14.94 71.19-1.12Q71.19-0.66 70.93-0.33 70.68 0 70.07 0L70.07 0 66.4 0Q66.01 0 65.71-0.11 65.4-0.22 65.13-0.54L65.13-0.54 63.62-2.49 63.45-2.49Q62.33-0.85 60.43-0.12 58.54 0.61 56.08 0.61ZM58.76-5.05L58.76-5.05Q61.01-5.05 62.16-6.2 63.3-7.35 63.62-8.57L63.62-8.57 63.62-11.28Q60.23-11.28 58.53-10.75 56.83-10.23 56.27-9.39 55.71-8.54 55.71-7.57L55.71-7.57Q55.71-6.15 56.59-5.6 57.47-5.05 58.76-5.05ZM101.95-15.55L101.95-15.55 101.95-1.29Q101.95-0.56 101.64-0.28 101.34 0 100.61 0L100.61 0 95.58 0Q94.84 0 94.54-0.28 94.23-0.56 94.23-1.29L94.23-1.29 94.23-14.28Q94.23-16.94 93.11-18.16 91.99-19.38 90.06-19.38L90.06-19.38Q88.13-19.38 87.09-18.55 86.05-17.72 85.49-16.46L85.49-16.46 85.49-1.29Q85.49-0.56 85.19-0.28 84.88 0 84.15 0L84.15 0 79.12 0Q78.39 0 78.08-0.28 77.78-0.56 77.78-1.29L77.78-1.29 77.78-21.75Q77.78-22.34 78.02-22.66L78.02-22.66Q78.54-23.34 79.26-24.05 79.98-24.76 81.03-25.56L81.03-25.56Q81.34-25.81 81.64-25.81L81.64-25.81Q81.9-25.81 82.25-25.56L82.25-25.56Q83.27-24.76 84-24.02 84.74-23.29 85.3-22.51L85.3-22.51 85.42-22.51Q85.83-23.05 86.66-23.77 87.5-24.49 89-25.05 90.5-25.61 92.84-25.61L92.84-25.61Q95.14-25.61 97.21-24.68 99.29-23.75 100.62-21.56 101.95-19.36 101.95-15.55ZM132.71-22.66L132.71-22.66 132.71-2.86Q132.71 4.27 128.64 8.01 124.58 11.74 117.5 11.74L117.5 11.74Q114.57 11.74 112.86 11.32 111.15 10.89 110.27 10.5L110.27 10.5Q109.71 10.23 109.54 9.94L109.54 9.94Q109.29 9.55 108.99 8.79 108.68 8.03 108.42 7.13L108.42 7.13Q108.34 6.79 108.39 6.62L108.39 6.62Q108.49 6.37 108.76 6.1L108.76 6.1Q109.2 5.66 110.01 5.08 110.83 4.49 111.27 4.32L111.27 4.32Q111.74 4.15 112.13 4.37L112.13 4.37Q112.76 4.71 113.95 5.14 115.13 5.57 117.28 5.57L117.28 5.57Q120.7 5.57 122.84 3.81 124.99 2.05 124.99-1.61L124.99-1.61 124.99-2.49 124.89-2.49Q124.36-1.81 123.5-1.1 122.65-0.39 121.29 0.1 119.94 0.59 117.81 0.59L117.81 0.59Q114.13 0.59 111.77-1.01 109.42-2.61 108.31-5.42 107.19-8.23 107.19-11.82L107.19-11.82Q107.19-15.75 108.49-18.87 109.78-22 112.83-23.82 115.89-25.63 121.18-25.63L121.18-25.63Q124.36-25.63 126.52-25.17 128.68-24.71 130.14-24.02 131.61-23.34 132.71-22.66ZM120.92-19.73L120.92-19.73Q118.08-19.73 116.59-17.82 115.1-15.92 115.1-11.91L115.1-11.91Q115.1-5.64 120.28-5.64L120.28-5.64Q122.31-5.64 123.38-6.47 124.46-7.3 124.99-8.57L124.99-8.57 124.99-18.65Q124.46-19.04 123.48-19.38 122.5-19.73 120.92-19.73ZM145.77 0.61L145.77 0.61Q142.18 0.61 140.07-1.4 137.95-3.42 137.95-6.96L137.95-6.96Q137.95-8.79 138.63-10.36 139.3-11.94 140.97-13.15 142.64-14.36 145.66-15.09 148.67-15.82 153.36-15.94L153.36-15.94Q153.36-18.16 152.25-19.14 151.14-20.12 148.92-20.12L148.92-20.12Q146.91-20.12 145.64-19.43 144.37-18.75 144.06-18.51L144.06-18.51Q143.72-18.21 143.23-18.29L143.23-18.29Q142.57-18.38 141.82-18.63 141.08-18.87 140.22-19.19L140.22-19.19Q140.1-19.24 139.96-19.35 139.81-19.46 139.78-19.68L139.78-19.68Q139.78-19.8 139.81-19.98 139.83-20.17 139.93-20.65L139.93-20.65Q140.03-21.14 140.22-21.86 140.42-22.58 140.59-22.97L140.59-22.97Q140.81-23.39 141.32-23.75L141.32-23.75Q141.74-24.1 143.84-24.85 145.94-25.61 149.92-25.61L149.92-25.61Q160.88-25.61 160.88-14.94L160.88-14.94 160.88-1.12Q160.88-0.66 160.62-0.33 160.37 0 159.76 0L159.76 0 156.09 0Q155.7 0 155.4-0.11 155.09-0.22 154.82-0.54L154.82-0.54 153.31-2.49 153.14-2.49Q152.02-0.85 150.12-0.12 148.23 0.61 145.77 0.61ZM148.45-5.05L148.45-5.05Q150.7-5.05 151.85-6.2 152.99-7.35 153.31-8.57L153.31-8.57 153.31-11.28Q149.92-11.28 148.22-10.75 146.52-10.23 145.96-9.39 145.4-8.54 145.4-7.57L145.4-7.57Q145.4-6.15 146.28-5.6 147.16-5.05 148.45-5.05ZM186.93-33.08L186.93-33.08Q188.27-31.2 189.67-28.23 191.08-25.27 192.39-21.73 193.71-18.19 194.78-14.49 195.84-10.79 196.52-7.37 197.2-3.96 197.3-1.29L197.3-1.29Q197.33 0 196.13 0L196.13 0 190.22 0Q189.07 0 189.03-1.15L189.03-1.15Q188.93-3.88 188.15-7.79L188.15-7.79 174.82-7.79Q174.13-3.98 174.04-1.15L174.04-1.15Q173.99 0 172.79 0L172.79 0 167 0Q166.56 0 166.27-0.26 165.98-0.51 166-1.15L166-1.15Q166.13-3.86 166.8-7.31 167.47-10.77 168.54-14.48 169.62-18.19 170.93-21.74 172.25-25.29 173.67-28.25 175.09-31.2 176.43-33.08L176.43-33.08Q177.14-34.08 177.93-34.55 178.72-35.01 179.89-35.01L179.89-35.01 183.41-35.01Q184.61-35.01 185.41-34.55 186.22-34.08 186.93-33.08ZM181.55-27.29L181.41-27.29Q179.8-24.73 178.45-21.17 177.11-17.6 176.13-13.84L176.13-13.84 186.73-13.84Q185.71-17.6 184.36-21.17 183.02-24.73 181.55-27.29L181.55-27.29ZM210.14-22.17L210.14-20.36 210.24-20.36Q212.07-25.44 216.83-25.44L216.83-25.44Q217.44-25.44 217.83-25.38 218.22-25.32 218.37-25.27L218.37-25.27Q218.74-25.15 218.74-24.71L218.74-24.71 218.74-18.82Q218.74-18.07 217.86-18.41L217.86-18.41Q217.56-18.53 217.01-18.66 216.46-18.8 215.49-18.8L215.49-18.8Q212.97-18.8 211.56-16.96 210.14-15.11 210.14-11.94L210.14-11.94 210.14-1.29Q210.14-0.56 209.84-0.28 209.53 0 208.8 0L208.8 0 203.77 0Q203.04 0 202.73-0.28 202.43-0.56 202.43-1.29L202.43-1.29 202.43-21.75Q202.43-22.34 202.67-22.66L202.67-22.66Q203.18-23.34 203.9-24.05 204.62-24.76 205.67-25.56L205.67-25.56Q205.87-25.71 206.06-25.76 206.26-25.81 206.41-25.81L206.41-25.81Q206.75-25.81 207.09-25.56L207.09-25.56Q209.12-23.97 209.92-22.85L209.92-22.85Q210.14-22.56 210.14-22.17L210.14-22.17ZM234.82-25.61L234.82-25.61Q237.73-25.61 239.05-25.13 240.36-24.66 240.71-24.39L240.71-24.39Q241.24-24.05 241.54-23.51L241.54-23.51Q241.71-23.24 241.93-22.58 242.15-21.92 242.24-21.14L242.24-21.14Q242.37-20.53 242.27-20.28 242.17-20.02 241.66-19.65L241.66-19.65Q241.07-19.26 240.38-18.96 239.68-18.65 239.24-18.53L239.24-18.53Q238.87-18.43 238.68-18.48 238.48-18.53 238.14-18.77L238.14-18.77Q237.75-19.04 237.04-19.37 236.34-19.7 235.09-19.7L235.09-19.7Q233.5-19.7 232.07-18.92 230.65-18.14 229.76-16.58 228.86-15.01 228.86-12.67L228.86-12.67Q228.86-9.16 230.71-7.23 232.55-5.3 235.65-5.3L235.65-5.3Q237.24-5.3 238.29-5.63 239.34-5.96 239.95-6.3L239.95-6.3Q240.44-6.57 240.69-6.43 240.95-6.3 241.1-5.96L241.1-5.96 242.88-1.93Q243.15-1.29 242.59-1.03L242.59-1.03Q241.68-0.56 239.61 0.02 237.53 0.61 234.48 0.61L234.48 0.61Q228.35 0.61 224.69-2.65 221.03-5.91 221.03-12.4L221.03-12.4Q221.03-16.55 222.71-19.51 224.4-22.46 227.5-24.04 230.6-25.61 234.82-25.61ZM254.57-16.46L254.57-1.29Q254.57-0.56 254.26-0.28 253.96 0 253.23 0L253.23 0 248.2 0Q247.47 0 247.16-0.28 246.86-0.56 246.86-1.29L246.86-1.29 246.86-34.33Q246.86-34.91 247.1-35.23L247.1-35.23Q248.12-36.57 250.1-38.13L250.1-38.13Q250.44-38.38 250.71-38.38L250.71-38.38Q251.03-38.38 251.32-38.13L251.32-38.13Q252.37-37.33 253.09-36.62 253.81-35.91 254.33-35.23L254.33-35.23Q254.57-34.91 254.57-34.33L254.57-34.33 254.57-22.49 254.67-22.49Q255.2-23.19 256.06-23.91 256.91-24.63 258.34-25.12 259.77-25.61 261.99-25.61L261.99-25.61Q264.24-25.61 266.31-24.68 268.39-23.75 269.71-21.56 271.02-19.36 271.02-15.55L271.02-15.55 271.02-1.29Q271.02-0.56 270.72-0.28 270.41 0 269.68 0L269.68 0 264.65 0Q263.92 0 263.62-0.28 263.31-0.56 263.31-1.29L263.31-1.29 263.31-14.21Q263.31-16.92 262.19-18.15 261.06-19.38 259.14-19.38L259.14-19.38Q257.23-19.38 256.18-18.55 255.13-17.72 254.57-16.46L254.57-16.46ZM276.49-33.2L276.49-33.2Q276.49-33.52 276.69-33.76 276.88-34.01 277.2-34.4L277.2-34.4Q277.88-35.18 278.79-36.05 279.69-36.91 280.62-37.72L280.62-37.72Q281.2-38.18 281.5-38.18L281.5-38.18Q281.79-38.18 282.4-37.72L282.4-37.72Q284.38-36.01 285.77-34.4L285.77-34.4Q286.09-34.03 286.29-33.78 286.5-33.52 286.5-33.2L286.5-33.2Q286.5-32.89 286.29-32.64 286.09-32.4 285.74-31.98L285.74-31.98Q285.08-31.23 284.21-30.36 283.33-29.49 282.4-28.71L282.4-28.71Q282.06-28.42 281.86-28.33 281.67-28.25 281.5-28.25L281.5-28.25Q281.33-28.25 281.14-28.33 280.96-28.42 280.57-28.71L280.57-28.71Q279.59-29.49 278.74-30.36 277.88-31.23 277.2-32.03L277.2-32.03Q276.88-32.42 276.69-32.65 276.49-32.89 276.49-33.2ZM285.33-23.71L285.33-1.29Q285.33-0.56 285.02-0.28 284.72 0 283.99 0L283.99 0 278.96 0Q278.22 0 277.92-0.28 277.61-0.56 277.61-1.29L277.61-1.29 277.61-23.71Q277.61-24.44 277.92-24.72 278.22-25 278.96-25L278.96-25 283.99-25Q284.72-25 285.02-24.72 285.33-24.44 285.33-23.71L285.33-23.71ZM297.24-2.27L297.24-2.27Q295.9-4.39 294.59-7.17 293.29-9.94 292.22-12.78 291.16-15.63 290.53-17.98 289.89-20.34 289.89-21.61L289.89-21.61Q289.89-22.09 290.16-22.41L290.16-22.41Q291.28-23.8 293.36-25.32L293.36-25.32Q293.73-25.56 294.02-25.56L294.02-25.56Q294.34-25.56 294.68-25.32L294.68-25.32Q295.8-24.51 296.57-23.8 297.34-23.1 297.88-22.41L297.88-22.41Q298.14-22.09 298.14-21.51L298.14-21.51 298.14-21.63Q298.14-20.04 298.72-17.47 299.29-14.89 300.29-12.04 301.29-9.18 302.61-6.79L302.61-6.79 302.73-6.79Q303.83-8.59 304.69-10.69 305.54-12.79 306.13-14.89 306.71-16.99 307.02-18.75 307.32-20.51 307.32-21.61L307.32-21.61 307.32-21.51Q307.32-22.09 307.57-22.41L307.57-22.41Q308.13-23.1 308.89-23.8 309.64-24.51 310.72-25.32L310.72-25.32Q311.06-25.56 311.35-25.56L311.35-25.56Q311.69-25.56 311.99-25.32L311.99-25.32Q313.09-24.51 313.84-23.8 314.6-23.1 315.14-22.41L315.14-22.41Q315.38-22.09 315.38-21.56L315.38-21.56Q315.36-20.24 314.7-17.86 314.04-15.48 312.93-12.63 311.82-9.79 310.45-7.04 309.08-4.3 307.67-2.27L307.67-2.27Q306.81-1.03 306.13-0.51 305.44 0 303.76 0L303.76 0 301.17 0Q299.41 0 298.74-0.49 298.07-0.98 297.24-2.27ZM289.89-21.51L289.89-21.63 289.89-21.61Q289.89-21.56 289.89-21.51L289.89-21.51ZM315.38-21.61L315.38-21.61 315.38-21.51 315.38-21.56Q315.38-21.58 315.38-21.61ZM332.15 0.61L332.15 0.61Q328.02 0.61 324.97-0.72 321.92-2.05 320.24-4.86 318.55-7.67 318.55-12.11L318.55-12.11Q318.55-18.77 321.97-22.19 325.39-25.61 331.05-25.61L331.05-25.61Q334.74-25.61 337.29-24.29 339.84-22.97 341.17-20.65 342.5-18.33 342.5-15.36L342.5-15.36Q342.5-12.45 341.01-11.3 339.52-10.16 336.67-10.16L336.67-10.16 326.19-10.16Q326.39-7.64 328.04-6.32 329.68-5 332.52-5L332.52-5Q334.76-5 336.12-5.68 337.47-6.35 338.01-6.74L338.01-6.74Q338.47-7.08 339.06-7.06L339.06-7.06Q339.52-7.06 340.39-6.87 341.26-6.69 342.11-6.2L342.11-6.2Q342.72-5.88 342.72-5.32L342.72-5.32Q342.72-5 342.6-4.42L342.6-4.42Q342.53-4.08 342.36-3.43 342.18-2.78 341.92-2.22L341.92-2.22Q341.77-1.95 341.45-1.71L341.45-1.71Q340.96-1.37 339.88-0.81 338.79-0.24 336.91 0.18 335.03 0.61 332.15 0.61ZM326.14-15.16L326.14-15.16 334.1-15.16Q335.35-15.16 335.35-16.31L335.35-16.31Q335.35-18.04 334.26-19.23 333.18-20.41 331-20.41L331-20.41Q328.63-20.41 327.52-18.9 326.41-17.38 326.14-15.16Z" fill="black"></path></g></svg></g></svg></g></svg></g></svg></g><g><svg viewBox="0 0 83.31322899290991 80.70969058688148" height="80.70969058688148" width="83.31322899290991"><g><svg xmlns="http://www.w3.org/2000/svg" xmlns:xlink="http://www.w3.org/1999/xlink" version="1.1" x="0" y="0" viewBox="0 1 64 62" enable-background="new 0 0 64 64" xml:space="preserve" height="80.70969058688148" width="83.31322899290991" class="icon-icon-0" data-fill-palette-color="accent" id="SvgjsSvg4429"><g fill="black"><g fill="black"><g fill="black"><path d="M25 58H1A1 1 0 1 1 1 56H25A1 1 0 1 1 25 58" fill="black"></path></g><g fill="black"><path d="M25 62H1A1 1 0 1 1 1 60H25A1 1 0 1 1 25 62" fill="black"></path></g><g fill="black"><path d="M63 58H39A1 1 0 1 1 39 56H63A1 1 0 1 1 63 58" fill="black"></path></g><g fill="black"><path d="M63 62H39A1 1 0 1 1 39 60H63A1 1 0 1 1 63 62" fill="black"></path></g><g fill="black"><g fill="black"><path d="M25 63A1 1 0 0 1 24 62V56A1 1 0 1 1 26 56V62A1 1 0 0 1 25 63" fill="black"></path></g><g fill="black"><path d="M39 63A1 1 0 0 1 38 62V56A1 1 0 1 1 40 56V62A1 1 0 0 1 39 63" fill="black"></path></g><g fill="black"><path d="M39 63H25A1 1 0 1 1 25 61H39A1 1 0 1 1 39 63" fill="black"></path></g><g fill="black"><path d="M39 57H35A1 1 0 1 1 35 55H39A1 1 0 1 1 39 57" fill="black"></path></g><g fill="black"><path d="M29 57H25A1 1 0 1 1 25 55H29A1 1 0 1 1 29 57" fill="black"></path></g><g fill="black"><path d="M29 57A1 1 0 0 1 28 56V52A1 1 0 1 1 30 52V56A1 1 0 0 1 29 57" fill="black"></path></g><g fill="black"><path d="M35 57A1 1 0 0 1 34 56V52A1 1 0 1 1 36 52V56A1 1 0 0 1 35 57" fill="black"></path></g><g fill="black"><path d="M35 53H29A1 1 0 1 1 29 51H35A1 1 0 1 1 35 53" fill="black"></path></g><g fill="black"><path d="M30 53A1 1 0 0 1 29 52V46A1 1 0 1 1 31 46V52A1 1 0 0 1 30 53" fill="black"></path></g><g fill="black"><path d="M34 53A1 1 0 0 1 33 52V46A1 1 0 1 1 35 46V52A1 1 0 0 1 34 53" fill="black"></path></g></g><g fill="black"><path d="M57 47H7A1 1 0 0 1 6.006 46.11L2.006 10.11A1 1 0 0 1 3 9H61A1 1 0 0 1 61.994 10.11L57.994 46.11A1 1 0 0 1 57 47M7.896 45H56.105L59.883 11H4.117z" fill="black"></path></g><g fill="black"><path d="M7 11A1 1 0 0 1 6 10V2A1 1 0 1 1 8 2V10A1 1 0 0 1 7 11" fill="black"></path></g><g fill="black"><path d="M19 3H7A1 1 0 1 1 7 1H19A1 1 0 1 1 19 3" fill="black"></path></g><g fill="black"><path d="M22 6A1 1 0 0 1 21.293 5.707L18.293 2.707A0.999 0.999 0 1 1 19.707 1.293L22.707 4.293A0.999 0.999 0 0 1 22 6" fill="black"></path></g><g fill="black"><path d="M57 6H22A1 1 0 1 1 22 4H57A1 1 0 1 1 57 6" fill="black"></path></g><g fill="black"><path d="M57 11A1 1 0 0 1 56 10V5A1 1 0 1 1 58 5V10A1 1 0 0 1 57 11" fill="black"></path></g><g fill="black"><path d="M45 26H19A1 1 0 1 1 19 24H45A1 1 0 1 1 45 26" fill="black"></path></g><g fill="black"><path d="M45 30H19A1 1 0 1 1 19 28H45A1 1 0 1 1 45 30" fill="black"></path></g><g fill="black"><path d="M38 34H26A1 1 0 1 1 26 32H38A1 1 0 1 1 38 34" fill="black"></path></g></g></g></svg></g></svg></g></svg></g><defs><mask></mask></defs></svg><rect width="395.52" height="62.38797901704259" fill="black" stroke="none" visibility="hidden"></rect></g></mask></svg><rect width="395.52" height="62.38797901704259" fill="black" stroke="none" visibility="hidden"></rect></g></mask><linearGradient x1="0" x2="1" y1="0.5" y2="0.5" id="94a0096f-24da-41f9-b63c-40fa075a1286"><stop stop-color="#f00b51" offset="0"></stop><stop stop-color="#730062" offset="1"></stop></linearGradient><rect width="395.52" height="62.38797901704259" fill="url(#94a0096f-24da-41f9-b63c-40fa075a1286)" mask="url(#b4fe627d-8f04-4a60-a21f-f40dab294106)" data-fill-palette-color="accent"></rect></svg><rect width="395.52" height="62.38797901704259" fill="none" stroke="none" visibility="hidden"></rect></g></svg></g></svg>